<?xml version="1.0" encoding="UTF-8"?> <svg xmlns="http://www.w3.org/2000/svg" xmlns:xlink="http://www.w3.org/1999/xlink" width="423" height="382" viewBox="0 0 422.29 381.96"><style><![CDATA[.A{fill:#16110d}.B{fill:#e5e5e5}.C{fill:#fe3e31}.D{fill:#fff}]]></style><path class="A" d="M22.53 353.22c-.56-.3-.56-.8 0-1.15.57-.35 1.48-.4 2.05-.1.56.3.56.8 0 1.15"></path><path class="B" d="M138.25 331.56l57.48-34.54 41.1 19.95-56.9 34.6z"></path><path class="B" d="M162.02 359.9l32.8-20.14 25.9 13.07-32.64 19.45z"></path><path class="C" d="M251.37 285.82l-71.34 42.84-78.77-38.27-5.24 3.5 78.8 37.9 5.3 2.58 76.52-46.02z"></path><path class="B" d="M130.5 247.52l40.64 20.84 18.93-11.33 27.17 13.58 13.2-18.7-57.72-30.34zm67.02-72.62l52.52 24.66 34.1-19.95 49.8 25.5 25.1-16.14 16.64 8.25 28.43-17.46-54.9-25.86-30.07 18.44L265 145.2l-50.53 7.9-27.35 16.96z"></path><path class="C" d="M386.14 210.58l-83.46-40.5 69.42-41.8 3.6-2.04-49.56-24.2-5.24 3.5 44.25 21.24-73.26 44.04 1.54.75-.05.03 82.35 39.57-72.5 43.58 5.3 2.58 76.97-46.38z"></path><path class="D" d="M375.35 190.2l-28.63-14.03v-50.55l28.63 14.18z"></path><path d="M403.16 122.65l-27.83 16.73-29-14.36v51.4l29.02 14.22.36-.2 27.44-16.5v-51.28zm-56.07 53.3v-49.72l27.88 13.8v49.57l-27.88-13.66z"></path><path class="D" d="M374.18 106.9l-31.66 18.84 32.82 16.32L407.46 123l-33.28-16.08z"></path><path class="B" d="M374.15 109.3l-31.66 18.85 32.82 16.32 32.12-19.1-33.28-16.08z"></path><path class="D" d="M342.52 125.75v2.8l32.82 16.28v-2.77z"></path><path d="M407.44 122.56l-33.3-16.08-32 19.05v3.26l33.2 16.48.36-.2 32.12-19.1v-3.22l-.4-.2zm-32.48 21.68l-32.07-15.9v-1.97l32.07 15.95v1.93zm-31.66-18.52l30.9-18.4 32.48 15.7-31.35 18.62-32.02-15.92z"></path><path class="B" d="M373 160.8v-9.67L351 140.55v9.7z"></path><path d="M372.2 159.13l-22.77-10.9V137.7l22.77 10.94v10.5zm-22.02-11.36l21.27 10.17v-8.83l-21.27-10.2v8.87z"></path><path class="D" d="M400.18 135.68v10.08l-21.6 13v-9.94z"></path><path d="M378.2 159.4v-10.8l22.37-13.6v10.96L378.2 159.4zm.75-10.4v9.07l20.87-12.54v-9.2l-20.87 12.68z"></path><path class="D" d="M384.7 131.1l-12.08-5.93v-9.28l6.04 2.9z"></path><path class="D" d="M371.55 115.4l7.12 3.4 6.04 12.3 2.08 1.08-7.08-14.47-8.16-3.96z"></path><path class="D" d="M389.7 111.8l-10 5.92-8.16-3.96 9.85-5.96 8.3 4z"></path><path class="B" d="M389.7 113.4l-8.54 5.1-8.15-3.96 8.4-5.14 8.3 4z"></path><path d="M390 111.5l-.3-.14-8.3-4-9.85 5.96-.36.2v2.1l1.08.5v9.25l12.27 6.02 1.98 1.03.3.15.48-.28 10.03-5.96-7.3-14.86zm-8.57-3.3l7.5 3.6-9.22 5.46-7.35-3.57 9.08-5.5zm-8.4 16.73v-8.43l5.38 2.56 2.7 5.5 2.8 5.7-10.88-5.34zm11.98 5.88l-6.05-12.32-.24-.12-6.45-3.1v.03l-.33-.16v-.82l7.5 3.64 6.52 13.33-.95-.5z"></path><path class="B" d="M373 173.67V164L351 153.43v9.7z"></path><path d="M372.2 172l-22.77-10.9v-10.54l22.77 10.93V172zm-22.02-11.36l21.27 10.17V162l-21.27-10.2v8.87z"></path><path class="D" d="M400.18 148.56v10.08l-21.6 13v-9.94z"></path><path d="M378.2 172.3v-10.8l22.37-13.6v10.96L378.2 172.3zm.75-10.4v9.07l20.87-12.54v-9.2l-20.87 12.68z"></path><path class="D" d="M374.98 145.97l-.01-.9 28.2-16.5v.85z"></path><path class="C" d="M69.23 280.02l-11.9-6.86v-13.73l11.9 6.87z"></path><path class="D" d="M81.12 259.43l-11.9 6.87-11.9-6.87 11.9-6.86z"></path><path class="B" d="M81.12 260.8l-10.7 6.1-11.9-6.86 10.7-6.1z"></path><path class="A" d="M69.23 252.17l-11.9 6.86-.35.22v14.12l12.24 7.06.35-.2 11.9-6.86v-14.13l-12.24-7.07zm0 .8l11.2 6.46-5.62 3.24-5.57 3.22-11.18-6.46 11.18-6.46zm-11.54 20v-12.92l11.2 6.46v12.92l-11.2-6.46zm8.67 2.93l-1.8-1.05c-.3-.17-.53-.62-.53-1v-1.9c0-.4.24-.57.53-.4l1.8 1.05c.3.17.53.62.53 1v1.9c0 .4-.24.57-.53.4z"></path><path class="B" d="M53.57 250L35.4 239.5 17.2 250v21l18.18 10.5v-20.95z"></path><path class="C" d="M17.2 270.93l18.18 10.5V260.5L17.2 249.94z"></path><path class="A" d="M53.93 249.8l-18.55-10.7-18.54 10.7v21.4l18.54 10.7.36-.2 18.18-10.5v-21l.01-.42zm-18.54-9.86l8.55 4.93-17.45 10.08-8.56-4.94 17.46-10.07zm-.37 40.94L17.57 270.8v-20.15l17.45 10.08v20.15zm7.77-25.06l-7.4 4.27-8.55-4.93 17.45-10.08 8.55 4.93-10.05 5.8zm-14.62 4.7l-3.37-1.95c-.37-.2-.75-.24-1.06-.06-.35.2-.55.63-.55 1.18 0 .92.55 1.95 1.25 2.36L27.8 264c.2.12.4.18.6.18a.93.93 0 0 0 .46-.12c.35-.2.55-.63.55-1.18-.01-.92-.56-1.96-1.26-2.36zm.33 2.9c-.1.06-.25-.01-.34-.06l-3.37-1.95c-.48-.28-.9-1.07-.9-1.73 0-.33.1-.5.2-.55.1-.06.26.01.34.06l.23.13c.08.8.55 1.62 1.14 1.96l2.88 1.66c-.01.28-.1.44-.18.48z"></path><path class="D" d="M50.94 264.86c-.17-.1-.38-.1-.6.03l-2.7 1.55c-.4.23-.7.82-.7 1.34v2.88c0 .3.1.55.3.66.08.04.16.07.25.07a.66.66 0 0 0 .34-.1l2.7-1.55c.4-.23.7-.82.7-1.34v-2.88c0-.3-.1-.54-.3-.66zm190.7-83.08l-30.77-15.08v-54.34l30.77 15.24z"></path><path d="M271.55 109.16l-29.9 17.98-31.16-15.43v55.24l31.2 15.3.38-.23 29.5-17.73v-55.12zm-60.27 57.3V113l29.97 14.84v53.28l-29.97-14.68z"></path><path class="D" d="M240.4 92.24l-34.03 20.25 35.28 17.54 34.53-20.5-35.78-17.28z"></path><path class="B" d="M240.36 94.8l-34.03 20.26 35.28 17.54 34.53-20.5-35.78-17.3z"></path><path class="D" d="M206.36 112.5v3.02l35.28 17.5v-3z"></path><path d="M276.15 109.06l-35.8-17.28-34.4 20.48v3.5l35.7 17.72.4-.23 34.53-20.52v-3.45l-.42-.22zm-34.9 23.3l-34.47-17.1v-2.12l34.47 17.14v2.1zm-34.03-19.9l33.2-19.77 34.9 16.86-33.7 20.02-34.4-17.1z"></path><path class="B" d="M239.13 150.15v-10.4l-23.66-11.36v10.43z"></path><path d="M238.25 148.37l-24.47-11.7v-11.33l24.47 11.75v11.3zm-23.67-12.2l22.86 10.94v-9.5l-22.86-10.98v9.54z"></path><path class="D" d="M268.35 123.16V134l-23.24 13.97v-10.7z"></path><path d="M244.7 148.68v-11.62l24.04-14.6v11.8l-24.04 14.44zm.8-11.17v9.75l22.43-13.48v-9.9l-22.43 13.63z"></path><path class="D" d="M251.7 118.24l-12.98-6.37v-9.98l6.5 3.12z"></path><path class="D" d="M237.57 101.37l7.65 3.64 6.5 13.23 2.24 1.16-7.6-15.55-8.77-4.26z"></path><path class="D" d="M257.1 97.48l-10.75 6.37-8.77-4.26 10.6-6.4 8.93 4.3z"></path><path class="B" d="M257.08 99.2l-9.18 5.5-8.77-4.26 9.02-5.53 8.93 4.3z"></path><path d="M257.4 97.18l-.32-.15-8.93-4.3-10.96 6.64v2.26l1.16.55v9.95l13.2 6.47 2.13 1.1.32.17.5-.3 10.78-6.4-7.88-16zm-9.2-3.54l8.05 3.88-9.9 5.87-7.9-3.84 9.76-5.9zm-9.05 17.98v-9.06l5.8 2.75 5.9 12.05-11.7-5.74zm12.9 6.32l-6.5-13.24-.26-.13-6.93-3.32v.03l-.35-.17v-.88l8.06 3.92 7 14.33-1.04-.54z"></path><path class="B" d="M239.13 164v-10.4l-23.66-11.37v10.44z"></path><path d="M238.25 162.22l-24.47-11.7v-11.33l24.47 11.75v11.3zM214.58 150l22.86 10.94v-9.5l-22.86-10.98V150z"></path><path class="D" d="M268.35 137v10.84L245.1 161.8v-10.7z"></path><path d="M244.7 162.52V150.9l24.04-14.6v11.8l-24.04 14.44zm.8-11.17v9.75l22.43-13.48v-9.9l-22.43 13.63z"></path><path class="D" d="M241.24 134.23v-.96l30.3-17.56v.9z"></path><path class="B" d="M377.1 228.6l-18.18-10.5-18.18 10.5v21l18.18 10.5v-20.94z"></path><path class="C" d="M340.75 249.52l18.18 10.5v-20.94l-18.18-10.55z"></path><path class="A" d="M377.48 228.38l-18.55-10.7-18.55 10.7v21.4l18.54 10.7.36-.2 18.18-10.5v-21l.02-.42zm-18.55-9.87l8.55 4.93-17.45 10.08-8.55-4.93 17.45-10.08zm-.36 40.94l-17.45-10.08v-20.15l17.45 10.08v20.15zm7.76-25.06l-7.4 4.27-8.55-4.93 17.45-10.08 8.55 4.93-10.05 5.8zm-14.63 4.7l-3.37-1.95c-.37-.2-.75-.24-1.06-.06-.35.2-.55.63-.55 1.18 0 .92.55 1.95 1.25 2.36l3.37 1.95c.2.12.4.18.6.18a.93.93 0 0 0 .46-.12c.35-.2.55-.63.55-1.18-.01-.92-.56-1.96-1.26-2.36zm.33 2.9c-.1.06-.25-.01-.34-.06l-3.37-1.95c-.48-.28-.9-1.07-.9-1.73 0-.33.1-.5.2-.55.1-.06.26.01.34.06l.23.13c.08.8.55 1.62 1.14 1.96l2.88 1.66c-.01.28-.1.43-.18.48z"></path><path class="D" d="M374.5 243.45c-.17-.1-.38-.1-.6.03l-2.7 1.55c-.4.23-.7.82-.7 1.34v2.88c0 .3.1.55.3.66.08.04.16.07.25.07a.66.66 0 0 0 .34-.1l2.7-1.55c.4-.23.7-.82.7-1.34v-2.88c-.01-.3-.12-.55-.3-.66z"></path><path class="C" d="M221.88 361.04l-11.9-6.86v-13.73l11.9 6.87z"></path><path class="D" d="M233.76 340.45l-11.88 6.87-11.9-6.87 11.9-6.86z"></path><path class="B" d="M233.76 341.82l-10.68 6.1-11.9-6.86 10.7-6.1z"></path><path class="A" d="M221.87 333.18l-11.9 6.86-.35.22v14.12l12.24 7.06.35-.2 11.9-6.86v-14.13l-12.24-7.07zm0 .8l11.2 6.46-5.62 3.24-5.57 3.22-11.18-6.46 11.18-6.46zm-11.53 20v-12.92l11.2 6.46v12.92l-11.2-6.46zm8.66 2.95l-1.8-1.05c-.3-.17-.53-.62-.53-1v-1.9c0-.4.24-.57.53-.4l1.8 1.05c.3.17.53.62.53 1v1.9c-.01.38-.24.56-.53.4z"></path><path class="D" d="M194.77 264.8s-1.7-.15-2-1.5-.13-2.26-.13-2.26.96-1 1.85-.45l2.03 1.14-1.76 3.08z"></path><path d="M194.98 265.2l-.24-.02c-.08-.01-1.97-.2-2.32-1.8-.3-1.42-.14-2.37-.14-2.4l.02-.1.08-.08c.05-.05 1.18-1.2 2.32-.5l2 1.13.35.18-2.07 3.62zM193 261.2c-.03.27-.07 1 .15 2 .18.8 1 1.1 1.43 1.18l1.43-2.52-1.7-.97c-.5-.3-1.1.12-1.3.3z"></path><path class="B" d="M318.4 260.76l-30.74-18.86-74.02 42.07 29.9 19.1z"></path><path d="M243.52 303.52l-.2-.12-30.43-19.44.54-.3 74.22-42.2 31.1 19.52-.18.1-75.06 42.44zM214.35 284l29.2 18.65 74.1-41.9-30-18.4-73.3 41.66z"></path><path class="D" d="M232.1 218.82v55.55l30.26 17.96v-55.6z"></path><path class="B" d="M262.4 252.64l-30.3-17.05-.03 27.95 30.3 17.98z"></path><path d="M262.74 282.17l-31.04-18.42.02-28.8 31.04 17.47-.02 29.75zm-30.3-18.84L262 280.86l.02-28-29.54-16.63-.02 27.1zm76.28 8.5l-16.9-9.94 9.78-8.53 6.72 1.2 5.03 5.3c.3.56-4.63 11.95-4.63 11.95z"></path><path d="M309.02 272.1l-.3.17-17.54-10.32 10.3-9 7 1.27.08.08 5.1 5.4c.1.18.37.73-4.62 12.28l-.04.1zm-16.56-10.26l16.1 9.46c2.15-5 4.36-10.46 4.44-11.3-.34-.5-2.7-2.92-4.85-5.08l-6.43-1.16-9.25 8.08z"></path><path class="B" d="M318.58 204.6l-56.22 32.34-30.3-17.88 55.9-32.1z"></path><path d="M318.95 204.4l-30.97-17.85-56.26 32.28v55.75l31.02 18.4v-55.82l56.02-32.23.2-.53zm-86.48 69.77v-54.42L262 237.17v54.5l-29.52-17.5zm30.1-37.75l-29.5-17.47L288 187.4l29.85 17.2-55.28 31.8zm-19.24 72.42l-14.65-10.12 10.27-7.9 9.42 1.85zm.3.26l-.33.2-15.26-10.55 10.8-8.3 10 1.97-5.22 16.7zm-14.32-10.4l13.8 9.54 4.77-15.28-8.84-1.74-9.73 7.48z"></path><path class="D" d="M234.34 295.32l-.5-.3c-.17-.08-.35-.15-.54-.2-2.68-.64-6.12 2.96-7.33 8.03-1.12 4.7-.06 9 1.8 10.12l6.45 3.7 5.3-17.88-5.17-3.47z"></path><path d="M234.75 316.24c-.15.52-.75.75-1.2.48l-6.14-3.54c-2.02-1.45-2.83-6.04-1.8-10.4 1.24-5.2 4.8-9 7.78-8.3a2.96 2.96 0 0 1 .62.23l.54.32 5.4 3.64-5.2 17.6zm-6.73-3.54l5.97 3.43 5.08-17.16-5.42-3.62c-.13-.06-.3-.12-.44-.15-2.52-.6-5.75 3.02-6.87 7.75-1.1 4.57-.04 8.7 1.63 9.72l.05.03z"></path><path class="D" d="M241.26 308.65c-1.2 5.08-4.36 8.68-7.03 8.04-2.68-.64-3.87-5.27-2.66-10.35s4.36-8.68 7.03-8.04 3.86 5.27 2.66 10.35z"></path><path d="M234.86 317.14a3.53 3.53 0 0 1-.72-.08c-2.92-.7-4.2-5.44-2.94-10.8s4.57-9 7.48-8.32c2.92.7 4.2 5.44 2.94 10.8-1.17 4.9-4.04 8.4-6.76 8.4zm3.12-18.54c-2.32 0-5 3.38-6.05 7.83-1.14 4.8-.05 9.32 2.38 9.9 2.42.6 5.44-2.98 6.58-7.76 1.14-4.8.05-9.32-2.38-9.9a1.93 1.93 0 0 0-.53-.07zm1.02 9.5c-.65 2.72-2.34 4.65-3.77 4.3-1.44-.34-2.07-2.82-1.43-5.55.65-2.72 2.34-4.65 3.77-4.3 1.44.35 2.07 2.83 1.43 5.55z"></path><path d="M235.57 312.84c-.14 0-.28-.02-.42-.05-.84-.2-1.46-.96-1.77-2.15-.3-1.1-.26-2.47.06-3.85.7-2.97 2.56-4.98 4.22-4.6.84.2 1.46.96 1.77 2.15.3 1.1.26 2.47-.06 3.85-.64 2.72-2.26 4.64-3.8 4.64zm1.67-9.94c-1.16 0-2.52 1.76-3.06 4.06-.3 1.26-.32 2.5-.07 3.5.23.9.67 1.48 1.22 1.6 1.2.3 2.73-1.56 3.32-4.03.3-1.26.32-2.5.07-3.5-.23-.9-.67-1.48-1.22-1.6a1.22 1.22 0 0 0-.26-.03z"></path><path class="B" d="M237.58 302.57c-.3-.07-.6-.02-.9.08 1.22.6 1.74 2.9 1.14 5.42-.52 2.17-1.7 3.8-2.87 4.23.1.05.2.1.3.13 1.44.34 3.12-1.6 3.77-4.3.64-2.73.01-5.2-1.43-5.55z"></path><path d="M243.83 285.55l-15.67-9.45-5.62 3.1 13.22 8.05 6.17 5.75 1.9 3.3z" fill="#ffbe2e"></path><path d="M244.2 297.7l-2.58-4.46-6.12-5.7-13.72-8.34 6.4-3.5 16.03 9.67v12.35zM223.3 279.2l12.67 7.7 6.3 5.88 1.2 2.1v-9.13l-15.3-9.23-4.87 2.68z"></path><path class="B" d="M254.14 248.3c-3.9-2.68-26-17.02-29.3-16.75s-6.43 2.24-6.43 2.24l-16.72 9.56s-2.45 1.32-3.07 3.65l-5.23 20.84-3.73 23.8s-1.87 4.68 2.22 7.15 27.83 16.03 27.83 16.03 3.33 1.23 6.47-.62l3.14-1.86s.3-14.17 7.7-17.4 6.5 8.13 6.5 8.13l13.1-7.73.8-24.02v-17.3c-.01 0 .62-3.04-3.3-5.72zm-29.94 37.63l-29.17-17.33 5-20.3 27.94 16-3.77 21.62zm21.5-10.34l-19.17 10.34 3.94-22.63 15.23-8.4v20.7z"></path><path d="M222.3 315.6c-1.54 0-2.65-.4-2.73-.43-.3-.16-23.85-13.6-27.9-16.06-4.3-2.6-2.4-7.56-2.37-7.6l3.7-23.72c.05-.22 4.63-18.57 5.24-20.88.65-2.46 3.15-3.83 3.25-3.88l16.7-9.56c.12-.08 3.24-2 6.6-2.3h.1c3.9 0 26.33 14.7 29.42 16.8 4.07 2.8 3.47 5.97 3.44 6.1l.01 17.22-.8 24.24-13.88 8.2.05-.72c0-.06.43-6-2.1-7.8-.96-.68-2.27-.67-3.9.04-7.08 3.1-7.46 16.93-7.47 17.07 0 .2 0 .2-3.32 2.17-1.4.85-2.86 1.1-4.06 1.1zm-2.4-1.1c.02 0 3.17 1.1 6.1-.62l2.96-1.75c.07-1.88.8-14.43 7.9-17.53 1.88-.82 3.44-.8 4.63.03 2.33 1.66 2.48 6.04 2.44 7.77l12.3-7.27.8-23.82v-17.28c.03-.2.52-2.92-3.12-5.4-5.94-4.07-25.76-16.7-28.96-16.7h-.1c-3.17.26-6.24 2.16-6.27 2.18l-16.73 9.57c-.03.02-2.33 1.28-2.9 3.42l-5.23 20.83-3.73 23.77c-.1.26-1.72 4.5 2.04 6.77 4.04 2.45 27.6 15.9 27.83 16.03zm6.1-27.88l4.1-23.57 15.95-8.8v21.56L226 286.63zm4.78-23.08l-3.78 21.7 18.3-9.87v-19.84l-14.5 8.02zm-6.3 23L194.6 268.8l5.2-21.05 28.6 16.4-.05.26-3.86 22.15zm-29.02-18.1l28.46 16.9 3.64-20.83-27.28-15.63-4.82 19.55z"></path><path class="D" d="M195.08 268.7l5-20.3 27.94 16-3.77 21.62z"></path><path d="M224.52 286.63l-29.88-17.75 5.2-21.05 28.6 16.4-.05.26-3.86 22.15zm-29-18.1l28.46 16.9 3.64-20.83-27.28-15.63-4.82 19.55z"></path><path class="D" d="M245.73 254.75v21l-19.17 10.3 3.94-22.63z"></path><path d="M226.06 286.73l4.1-23.56.15-.1 15.8-8.98v21.87l-20.04 10.76zm4.78-23.08l-3.78 21.7 18.3-9.82V255.4l-14.5 8.26zm-2.86.67l-3.77 21.62-4.32 22.73c-.42 2.2 1.16 5.26 2.5 6.48 1.2.05 2.74-.13 4.24-1l3.14-1.86s.34-13.6 6.66-17.03c7.08-3.85 7.12 7.83 7.12 7.83l13.1-7.73.8-24.1v-17.3s.53-3.5-3.92-6.08c0 0-14.96 8.9-19.62 11.06-6.64 3.07-5.93 5.4-5.93 5.4zm17.7 11.2l-18.96 10.34 3.83-22.63 15.13-8.4v20.7z"></path><path d="M222.75 315.53c-.13 0-.26 0-.4-.01l-.14-.01-.1-.1c-1.36-1.25-3.08-4.4-2.6-6.83l4.32-22.73 3.76-21.54c-.1-.55-.07-2.86 6.12-5.73 4.6-2.13 19.44-10.95 19.6-11.04l.2-.1.2.1c4.6 2.7 4.13 6.3 4.1 6.46v17.24l-.8 24.3-13.83 8.17v-.65c0-.06-.06-6.26-2.76-7.87-1-.6-2.28-.47-3.8.36-6.05 3.3-6.46 16.58-6.46 16.7 0 .2 0 .2-3.32 2.17-1.2.72-2.55 1.08-4.04 1.08zm-.22-.75c1.43.04 2.74-.3 3.9-.97l2.96-1.75c.07-1.83.78-13.85 6.85-17.14 1.78-.96 3.3-1.08 4.55-.35 2.54 1.5 3.02 6.14 3.1 7.86l12.36-7.3.8-23.9v-17.28c.02-.18.4-3.24-3.55-5.64-1.77 1.05-15.12 8.95-19.47 10.96-6.1 2.83-5.7 4.92-5.7 4.94l.02.08-.01.1-3.78 21.6c0 .01-3.55 18.72-4.33 22.74-.38 2 1.08 4.85 2.3 6.04zm3.7-28.22l4-23.57 15.84-8.8v21.56l-19.83 10.82zm4.67-23.08l-3.67 21.7 18.08-9.86v-19.84l-14.4 8zm9.23 24.52v-3.7l4.32-2.68v4.53l-4.32 2.56z"></path><path class="D" d="M239.75 289.36v-5.28l3.9-2.43a.76.76 0 0 1 1.16.65v3.3a1.34 1.34 0 0 1-.66 1.16l-4.4 2.6zm.75-4.85v3.54l3.57-2.1v-3.65l-3.57 2.22z"></path><path d="M244.7 281.62s-.86.3-.86 1.4v2.53s.17.87.86.4c.7-.46.54-1.13.54-1.13l.01-2.73s-.3-.6-.55-.46z"></path><path class="D" d="M244.33 286.45c-.1 0-.2-.02-.3-.06-.44-.18-.56-.72-.57-.8l-.01-2.6c0-1.23.9-1.66 1.1-1.73a.55.55 0 0 1 .4-.03c.33.1.56.5.64.66l.04.17-.01 2.73c.01 0 .17.86-.7 1.44-.24.16-.43.2-.6.2zm.42-4.45c-.17.1-.54.36-.54 1v2.53c.02.03.08.15.12.17.02 0 .07-.01.16-.07.47-.32.38-.73.38-.74v-2.7c-.04-.07-.08-.13-.12-.18zm-53.53-.3l30.44 17.64 1.7-8.9-30.64-18.2z"></path><path d="M221.93 299.93l-31.1-18.04 1.6-10.25 31.35 18.62-1.85 9.67zm-30.3-18.43l29.75 17.25 1.54-8.12L193 272.85l-1.35 8.65z"></path><path d="M194.52 280.6l18.2 11.04 9.56-1.82-26-15.44zm18.14 11.42l-.12-.08-18.46-11.2 1.98-6.96 27.27 16.2-10.67 2.03zm-17.7-11.6l17.84 10.82 8.44-1.6-24.73-14.7-1.55 5.47z"></path><path class="B" d="M191.67 278.86l8 4.85s-1.1-7.98-4.46-9.98l-2.5-1.5-1.04 6.62z"></path><path d="M200.15 284.44l-8.9-5.4 1.16-7.4 3 1.77c3.48 2.07 4.6 9.92 4.64 10.25l.1.78zm-8.07-5.77l7.1 4.3c-.38-2.04-1.6-7.4-4.15-8.92l-2.03-1.2-.9 5.83z"></path><path class="B" d="M223.35 290.44l-3.23-1.92s-1.03-.32-4.18.33c-1.5.3-4.1 2.24-4.1 2.24l10.26 5.86 1.24-6.5z"></path><path d="M222.38 297.54l-11.22-6.4.46-.34c.1-.08 2.68-1.98 4.24-2.3 3.15-.65 4.25-.36 4.37-.32l3.53 2.1-1.38 7.28zm-9.83-6.48l9.3 5.3 1.1-5.73-3-1.78c0 .01-.2-.03-.65-.03-.6 0-1.64.07-3.27.4-1.03.2-2.67 1.27-3.47 1.83z"></path><path class="D" d="M215.64 312.33c-2.94-1.68-1.32-6.62-1.32-6.62l.7-1.94-20.62-12.25-.4 2.6s-1.87 4.68 2.22 7.15c2.7 1.63 13.94 8.08 21.3 12.3l-1.85-1.24z"></path><path d="M217.3 313.9L196 301.6c-4.3-2.6-2.4-7.56-2.37-7.6l.47-3.08 21.36 12.7-.8 2.23c-.01.04-1.5 4.66 1.15 6.17l.02.01 1.85 1.24-.38.64zm-22.63-21.77l-.32 2.06c-.1.26-1.72 4.5 2.04 6.77 2.3 1.4 10.9 6.34 17.62 10.2-1.13-2.22-.1-5.4-.06-5.56l.6-1.66-19.87-11.8z"></path><path d="M198.35 301.83c-2.94-1.68-1.32-6.62-1.32-6.62l.63-1.76-3.26-1.93-.4 2.6s-1.87 4.68 2.22 7.15l3.92 2.3-1.78-1.75zm4.17 3.57l-2.58-1.5-3.93-2.3c-4.3-2.6-2.4-7.56-2.37-7.6l.47-3.08 4 2.38-.73 2.05c-.01.04-1.5 4.66 1.16 6.17l.73 1.14 3.25 2.76zm-7.84-13.28l-.32 2.06c-.1.26-1.72 4.5 2.04 6.77l.95.57c-2.05-2.14-.74-6.24-.68-6.44l.53-1.47-2.52-1.5z"></path><path class="D" d="M300.16 260.1l-.5-.28a2.72 2.72 0 0 0-.55-.18c-2.7-.57-6.13 3.12-7.2 8.22-1 4.73.1 9 1.97 10.07l6.74 3.53 4.77-18-5.2-3.35z"></path><path d="M301.2 280.66c-.18.7-.96 1.03-1.6.7l-6.12-3.22c-2.04-1.4-2.9-5.88-1.96-10.36.52-2.5 1.62-4.78 3.08-6.4 1.46-1.64 3.13-2.4 4.57-2.1a2.67 2.67 0 0 1 .62.21l.55.3 5.44 3.5-4.6 17.37zm-7.13-3.04l6.28 3.3 4.58-17.3-5.47-3.48c-.14-.06-.3-.1-.44-.14-1.17-.25-2.57.43-3.85 1.87-1.38 1.54-2.4 3.7-2.9 6.07-.97 4.6.14 8.72 1.8 9.67l.02.01z"></path><path class="D" d="M307.43 273.23c-1.07 5.1-4.13 8.8-6.82 8.23-2.7-.57-4-5.16-2.93-10.27 1.07-5.1 4.13-8.8 6.82-8.23 2.68.57 4 5.17 2.93 10.27z"></path><path d="M301.17 281.9a2.79 2.79 0 0 1-.64-.07c-2.94-.62-4.36-5.33-3.22-10.72 1.13-5.4 4.3-9.14 7.26-8.5 1.45.3 2.57 1.62 3.16 3.7.57 2 .6 4.5.06 7.02s-1.55 4.8-2.88 6.4c-1.18 1.43-2.5 2.18-3.74 2.18zm2.75-18.6c-2.36 0-4.92 3.4-5.88 8-1 4.8.2 9.32 2.64 9.83 1.17.25 2.46-.42 3.65-1.86 1.25-1.5 2.22-3.67 2.72-6.08.5-2.4.5-4.78-.05-6.66-.5-1.8-1.44-2.92-2.6-3.17-.15-.04-.3-.05-.48-.05zm1.24 9.46c-.57 2.74-2.2 4.7-3.66 4.4-1.44-.3-2.15-2.77-1.57-5.5.57-2.74 2.2-4.7 3.66-4.4 1.44.3 2.15 2.77 1.57 5.5zm-3.36 4.8c-.12 0-.25-.01-.37-.04-1.67-.35-2.5-2.97-1.86-5.95.63-3 2.42-5.05 4.1-4.7 1.67.35 2.5 2.96 1.86 5.95-.6 2.77-2.18 4.74-3.73 4.74zm1.48-9.97c-1.17 0-2.5 1.8-3 4.14-.52 2.5.07 4.8 1.28 5.06s2.7-1.63 3.2-4.12-.07-4.8-1.28-5.06c-.07-.02-.15-.02-.22-.02z"></path><path class="B" d="M303.6 267.25c-.3-.06-.6-.01-.9.1 1.24.56 1.8 2.84 1.28 5.38-.46 2.18-1.6 3.86-2.76 4.3.1.04.2.1.3.12 1.44.3 3.08-1.67 3.66-4.4.57-2.73-.14-5.2-1.58-5.5z"></path><path d="M262.18 236.63l-.2.1v56.23l34.58-19.38.02-.2c.53-4.5 1.97-10.28 5.8-12.3 1.1-.58 2.05-.68 2.82-.3 1.3.64 2.24 2.66 2.75 5.83l.08.53 10.7-6.17.2-56.58-.37-.22-56.38 32.44z"></path><path class="B" d="M296.23 273.3l-52.7 29.8-.2 5.76 52.6-29.76s-.08-2.55.3-5.8z"></path><path d="M243.3 309.28l-.36-.25.22-6.18.18-.1 53.34-30.16-.1.74c-.38 3.17-.3 5.7-.3 5.74V279.3l-.2.1-52.8 29.87zm.6-5.98l-.17 4.88 51.8-29.32c-.01-.64-.01-2.54.23-4.9L243.9 303.3z"></path><path class="B" d="M308.32 266.45c.45 2.76.4 5.4.4 5.4l9.45-5.35.2-5.73-10.07 5.7z"></path><path d="M308.72 272.27l-.38-.22v-.22c0-.03.04-2.63-.4-5.32l-.04-.26 10.88-6.15-.24 6.6-9.82 5.56zm.01-5.62a33.66 33.66 0 0 1 .37 4.55l8.7-4.93.18-4.85-9.26 5.23z"></path><path class="D" d="M214.5 241.5l18.22 11.12 10.7-6.28-18.7-10.76z"></path><path d="M232.72 253.07l-18.95-11.56 10.94-6.34 19.46 11.18-11.45 6.72zm-17.5-11.55l17.5 10.67 9.95-5.84-17.97-10.33-9.47 5.5z"></path><path d="M224.7 238.06l16.6 9.54 2.12-1.25-18.7-10.76-10.2 5.92 2.08 1.27zm16.6 9.97l-16.6-9.54-8.13 4.72-2.8-1.7 10.94-6.34 19.46 11.18-2.88 1.7zm-16.6-10.4l16.6 9.53 1.38-.8-17.97-10.33-9.47 5.5 1.35.82 8.12-4.7z"></path><path class="D" d="M262.36 252.7l56.22-31.34v29.57l-56.22 30.58z"></path><path d="M262 282.15V252.5l.2-.1 56.77-31.65v30.43l-.2.1L262 282.15zm.75-29.22v27.96l55.46-30.17V222l-55.46 30.92z"></path><path class="D" d="M230.73 283.7s.68 2.2 3.33 2 2.87-1 2.87-1-.05-2.03-1.9-2.9-4.3-1.5-4.3-1.5l-.55.87 1.27.58-.7 1.95z"></path><path d="M233.73 286.07c-2.62 0-3.35-2.25-3.36-2.27l-.04-.12.64-1.73-1.34-.62.92-1.47.27.07c.1.03 2.5.64 4.36 1.52 2.04.96 2.12 3.14 2.12 3.23v.05V284.78c-.07.24-.5 1.06-3.2 1.26-.12.03-.25.03-.36.03zm-2.6-2.38c.17.4.9 1.77 2.9 1.62 1.86-.14 2.4-.57 2.5-.7-.04-.4-.27-1.8-1.68-2.47-1.45-.68-3.3-1.22-3.97-1.4l-.17.28 1.2.55-.8 2.13z"></path><path class="B" d="M264.87 288.88l12.05-7.03v-5.03l-7.76 4.2c-2.7 1.38-4.3 4.8-4.3 7.85z"></path><path d="M264.5 289.53v-.65c0-3.46 1.85-6.83 4.5-8.18l8.3-4.5V282.07l-12.8 7.46zm12.04-12.08l-7.2 3.9c-2.47 1.26-3.85 4.28-4.06 6.85l11.27-6.57v-4.2z"></path><path class="C" d="M264.87 222.8l-11.9-6.86v-13.73l11.9 6.86z"></path><path class="D" d="M276.76 202.22l-11.9 6.86-11.9-6.86 11.9-6.87z"></path><path class="B" d="M276.76 203.6l-10.7 6.1-11.88-6.87 10.68-6.1z"></path><path class="A" d="M264.87 194.95l-11.9 6.86-.35.22v14.12l12.24 7.06.35-.2 11.9-6.86v-14.13l-12.24-7.07zm0 .8l11.2 6.46-5.62 3.24-5.57 3.22-11.18-6.46 11.18-6.46zm-11.54 19.98V202.8l11.2 6.46v12.92l-11.2-6.46zm8.67 2.97l-1.8-1.05c-.3-.17-.53-.62-.53-1v-1.9c0-.4.24-.57.53-.4l1.8 1.05c.3.17.53.62.53 1v1.9c-.01.4-.24.57-.53.4z"></path><path class="D" d="M172.38 258.36l-28.63-14.03v-50.55l28.63 14.18z"></path><path d="M200.2 190.8l-27.83 16.73-29-14.36v51.4l29.02 14.22.36-.2 27.44-16.5V190.8zm-56.06 53.3v-49.72L172 208.2v49.57l-27.88-13.66z"></path><path class="D" d="M171.2 175.05l-31.66 18.85 32.82 16.32 32.12-19.1-33.28-16.08z"></path><path class="B" d="M171.18 177.45l-31.66 18.85 32.82 16.32 32.13-19.1-33.3-16.08z"></path><path class="D" d="M139.55 193.9v2.8L172.37 213v-2.77z"></path><path d="M204.48 190.7l-33.3-16.08-32 19.05v3.26l33.2 16.47.36-.2 32.12-19.1v-3.2l-.4-.2zM172 212.4l-32.07-15.9v-1.97L172 210.45v1.94zm-31.66-18.52l30.9-18.4 32.48 15.7-31.35 18.62-32.02-15.92z"></path><path class="B" d="M170.04 228.93v-9.66l-22.02-10.57v9.7z"></path><path d="M169.22 227.28l-22.77-10.9v-10.54l22.77 10.94v10.5zm-22.02-11.36l21.27 10.17v-8.83l-21.27-10.2v8.87z"></path><path class="D" d="M197.22 203.83v10.08l-21.62 13v-9.94z"></path><path d="M175.23 227.56v-10.8l22.37-13.6v10.96l-22.37 13.44zm.75-10.4v9.07l20.87-12.54v-9.2l-20.87 12.68z"></path><path class="D" d="M181.74 199.25l-12.08-5.93v-9.28l6.04 2.9z"></path><path class="D" d="M168.6 183.55l7.1 3.4 6.04 12.3 2.08 1.08-7.08-14.47-8.15-3.96z"></path><path class="D" d="M186.74 179.94l-10 5.92-8.15-3.96 9.84-5.96 8.3 4z"></path><path class="B" d="M186.74 181.54l-8.55 5.1-8.15-3.96 8.4-5.14 8.3 4z"></path><path d="M187.02 179.65l-.3-.14-8.3-4-9.85 5.96-.36.2v2.1l1.08.5v9.25l12.27 6.02 1.98 1.03.3.15.48-.28 10.03-5.96-7.3-14.86zm-8.57-3.3l7.5 3.6-9.22 5.46-7.35-3.57 9.08-5.5zm-8.4 16.73v-8.43l5.38 2.56 2.7 5.5 2.8 5.7-10.88-5.34zm12 5.88l-6.05-12.32-.24-.12-6.45-3.1v.03l-.33-.16v-.82l7.5 3.64 6.52 13.33-.95-.5z"></path><path class="B" d="M170.04 241.8v-9.66l-22.02-10.57v9.7z"></path><path d="M169.22 240.16l-22.77-10.9v-10.54l22.77 10.93v10.5zM147.2 228.8l21.27 10.17v-8.83l-21.27-10.2v8.87z"></path><path class="D" d="M197.22 216.7v10.08l-21.62 13v-9.94z"></path><path d="M175.23 240.44v-10.8l22.37-13.6V227l-22.37 13.44zm.75-10.4v9.07l20.87-12.54v-9.2l-20.87 12.68z"></path><path class="D" d="M172 214.12V213.23l28.2-16.34v.85z"></path><path class="B" d="M121.4 293.34c0 6.48-8.5 11.73-18.98 11.73s-18.98-5.25-18.98-11.73 8.5-11.73 18.98-11.73 18.98 5.25 18.98 11.73z"></path><path d="M117.45 291.08l-1.07-4.43h-2.55c-2.77-1.8-6.8-2.95-11.32-2.95s-8.55 1.14-11.32 2.95h-2.45l-1.17 4.38h.02c-.13.46-.2.92-.2 1.4 0 4.82 6.78 8.72 15.13 8.72 8.36 0 15.13-3.9 15.13-8.72 0-.47-.08-.9-.2-1.35z"></path><path class="D" d="M87.38 292.42l1.1 3.28 4.5 3.5 4.83 1.45.67-5.7-3.67-.83-4.97-3.15-1.23-2.77.12-1.54z"></path><use xlink:href="#B"></use><use xlink:href="#C" class="D"></use><path class="B" d="M116.34 289.94c0 4.43-6.24 8.03-13.93 8.03-7.7 0-13.93-3.6-13.93-8.03 0-4.43 6.24-8.03 13.93-8.03 7.7.01 13.93 3.6 13.93 8.03z"></path><path d="M102.56 279.14c-7.96 0-14.43 3.83-14.43 8.53s6.47 8.53 14.43 8.53 14.43-3.83 14.43-8.53c0-4.7-6.47-8.53-14.43-8.53zm0 16.06c-7.4 0-13.43-3.38-13.43-7.53s6.03-7.53 13.43-7.53c7.4 0 13.43 3.38 13.43 7.53s-6.03 7.53-13.43 7.53z"></path><path class="C" d="M102.5 283.43c-3.9 0-7.1 1.68-7.1 3.76s3.17 3.76 7.1 3.76 7.1-1.68 7.1-3.76c0-2.07-3.18-3.76-7.1-3.76z"></path><path class="D" d="M100.03 183.18c-12.2 5.62-23.13 22.64-24.17 38.36-.4 6.3.83 11.38 3.3 14.85l17.57 33.3 8.42 4.1c.76-1.72 13.05-60.23 13.6-62 1.32-4.1 10.3-6.7 10.37-10.7.25-14.64-17.2-23.42-29.1-17.94zm-1.54 37.54c-4.8 2.4-8.48-.54-8.18-6.52.3-5.9 4.37-12.45 9.05-14.7 4.64-2.22 8.22.6 8.04 6.35-.2 5.8-4.16 12.5-8.9 14.86z"></path><path class="B" d="M101.2 187.3c-12.2 5.62-23.13 22.64-24.17 38.36-.4 6.3.83 11.38 3.3 14.85l15.96 30.26 9.04 2.46c.76-1.72 14.03-55.53 14.6-57.3 1.32-4.1 10.3-6.7 10.37-10.7.25-14.64-17.2-23.42-29.1-17.94zm-1.54 37.53c-4.8 2.4-8.48-.54-8.18-6.52.3-5.9 4.37-12.45 9.05-14.7 4.64-2.22 8.22.6 8.04 6.35-.2 5.8-4.16 12.5-8.9 14.86z"></path><path d="M104.66 274.95l-8.8-4.37L78.16 237c-2.68-3.82-3.88-9.2-3.46-15.54 1.04-15.86 12.2-33.5 24.84-39.34 6.4-2.95 14.77-2.1 21.33 2.18 6.1 3.98 9.54 10.12 9.42 16.84-.05 2.7-2.87 4.64-5.6 6.5-2.12 1.45-4.32 2.96-4.83 4.53-.23.75-2.53 11.44-4.95 22.75l-8.7 39.35-1.55.67zm-7.1-6.12l6.83 3.33c1.2-4.96 5.22-23.64 8.24-37.7l5-22.97c.75-2.33 3.28-4.06 5.72-5.73 2.25-1.54 4.57-3.13 4.6-4.63.1-5.9-2.95-11.32-8.37-14.86-5.9-3.85-13.4-4.64-19.1-2.02-11.96 5.5-22.5 22.28-23.5 37.4-.4 5.85.68 10.72 3.08 14.1l.08.13 17.4 32.97zm-2.27-46.1c-1.14 0-2.2-.3-3.12-.9-2.1-1.38-3.2-4.17-3.03-7.67.32-6.35 4.6-13.23 9.7-15.68 2.45-1.17 4.8-1.16 6.64.04 2.05 1.34 3.16 4.03 3.05 7.4-.2 6.32-4.4 13.3-9.55 15.87-1.28.64-2.53.96-3.7.96zm7.07-22.8c-.77 0-1.62.2-2.5.64-4.35 2.08-8.12 8.23-8.4 13.7-.13 2.65.6 4.7 2 5.6 1.16.75 2.76.7 4.52-.2 4.4-2.2 8.1-8.4 8.27-13.87.08-2.53-.65-4.5-2-5.38-.55-.34-1.18-.5-1.88-.5z"></path><path class="C" d="M123.27 186.37c-4.16-2.7-9.6-2.76-15.3-.13-12.65 5.83-23.8 23.48-24.84 39.34-.42 6.35.78 11.72 3.46 15.54l17.6 33.37c.44.84 1.66.76 2-.12l20.07-52.72a53.52 53.52 0 0 0 2.03-5.34c1.4-4.34 2.13-8.6 2.2-12.63.13-8.04-2.43-14.18-7.22-17.3z"></path><path class="D" d="M118.77 214.5c0 2.64-.86 5.2-2.58 7.7s-4.1 4.66-7.16 6.52l-12.63 7.67v-29.1l11.55-7c3.08-1.87 5.4-2.67 7-2.4 1.58.27 2.37 1.6 2.37 4.02 0 1.65-.4 3.3-1.2 4.9-.8 1.62-2 3.12-3.63 4.5 2.04-.97 3.6-1.17 4.67-.6 1.07.55 1.6 1.82 1.6 3.8zm-6.77-8.55c0-1.3-.36-2.02-1.08-2.13s-1.8.26-3.2 1.13l-6.02 3.65v7.2l6.06-3.68c1.5-.9 2.58-1.86 3.25-2.87a5.93 5.93 0 0 0 1-3.31zm1.47 11.3c0-2.73-1.7-3.06-5.1-1l-6.7 4.07v8.34l6.9-4.2c1.7-1.03 2.93-2.14 3.72-3.32.78-1.18 1.17-2.48 1.17-3.9z"></path><path class="B" d="M351.25 107c0 6.48-8.5 11.73-19 11.73-10.48 0-18.98-5.25-18.98-11.73s8.5-11.73 18.98-11.73c10.5 0 19 5.25 19 11.73z"></path><path d="M346.8 104.43l-1.07-4.43h-2.55c-2.77-1.8-6.8-2.95-11.32-2.95s-8.55 1.14-11.32 2.95h-2.45l-1.17 4.38h.02c-.13.46-.2.92-.2 1.4 0 4.82 6.78 8.72 15.13 8.72s15.13-3.9 15.13-8.72c.01-.47-.07-.9-.2-1.35z"></path><path class="D" d="M316.74 105.77l1.1 3.28 4.5 3.5 4.83 1.45.67-5.7-3.67-.83-4.97-3.15-1.23-2.77.12-1.54z"></path><use xlink:href="#B" x="229.37" y="-186.64"></use><use xlink:href="#C" x="229.35" y="-186.65" class="D"></use><path class="B" d="M345.7 103.3c0 4.43-6.24 8.03-13.93 8.03-7.7 0-13.93-3.6-13.93-8.03 0-4.43 6.24-8.03 13.93-8.03 7.7 0 13.93 3.6 13.93 8.03z"></path><path d="M331.92 92.5c-7.96 0-14.43 3.83-14.43 8.53s6.47 8.53 14.43 8.53 14.43-3.83 14.43-8.53-6.47-8.53-14.43-8.53zm0 16.06c-7.4 0-13.43-3.38-13.43-7.53s6.03-7.53 13.43-7.53 13.43 3.38 13.43 7.53-6.03 7.53-13.43 7.53z"></path><path class="C" d="M331.87 96.8c-3.9 0-7.1 1.68-7.1 3.76s3.17 3.76 7.1 3.76 7.1-1.68 7.1-3.76-3.18-3.76-7.1-3.76z"></path><path class="D" d="M326.6 11.9c-10.5 4.84-19.93 19.5-20.83 33.06-.36 5.42.7 9.8 2.84 12.8l15.14 28.7L331 90c.65-1.48 11.24-51.9 11.73-53.42 1.14-3.54 8.88-5.77 8.94-9.22.2-12.62-14.83-20.2-25.08-15.47zm-1.33 32.35c-4.14 2.07-7.3-.47-7.05-5.62.26-5.08 3.76-10.73 7.8-12.66 4-1.9 7.08.52 6.93 5.47-.16 5-3.58 10.77-7.68 12.8z"></path><path class="B" d="M327.55 15.22c-10.5 4.84-19.93 19.5-20.83 33.06-.36 5.42.7 9.8 2.84 12.8l13.9 26.37 7.48 1.14c.65-1.48 12.25-47.16 12.74-48.68 1.14-3.54 8.88-5.77 8.94-9.22.22-12.63-14.82-20.2-25.07-15.47zm-1.33 32.35c-4.14 2.07-7.3-.47-7.05-5.62.26-5.08 3.76-10.73 7.8-12.66 4-1.9 7.08.52 6.93 5.47-.16 5-3.58 10.76-7.68 12.8z"></path><path d="M330.6 90.92l-7.58-3.7-15.26-28.94c-2.3-3.3-3.35-7.92-3-13.4.9-13.67 10.5-28.88 21.4-33.9 5.52-2.54 12.73-1.8 18.38 1.88 5.26 3.43 8.22 8.72 8.12 14.5-.04 2.33-2.47 4-4.83 5.6-1.83 1.25-3.72 2.55-4.16 3.9-.2.65-2.18 9.85-4.27 19.6l-7.5 33.9-1.32.52zm-6.1-5.2l5.88 2.87c1.04-4.27 4.5-20.38 7.1-32.5l4.32-19.8c.64-2 2.82-3.5 4.93-4.94 1.94-1.32 3.94-2.7 3.96-4 .1-5.1-2.54-9.76-7.2-12.8-5.1-3.32-11.55-4-16.45-1.74l-.42-.9.42.9c-10.3 4.75-19.4 19.2-20.25 32.22-.33 5.04.6 9.24 2.66 12.15l.07.1 15 28.4zm-1.96-39.74a4.86 4.86 0 0 1-2.69-.78c-1.8-1.2-2.77-3.6-2.62-6.6.28-5.47 3.95-11.4 8.37-13.5 2.12-1 4.15-1 5.73.03 1.76 1.15 2.72 3.47 2.63 6.37-.17 5.45-3.8 11.46-8.23 13.67l-.45-.9.45.9c-1.1.56-2.18.83-3.2.83zm6.1-19.65c-.66 0-1.4.18-2.17.55-3.75 1.8-7 7.1-7.23 11.8-.12 2.3.5 4.05 1.7 4.84 1 .65 2.38.6 3.9-.16 3.78-1.9 6.98-7.25 7.13-11.95.07-2.18-.56-3.87-1.73-4.63-.46-.3-1-.46-1.6-.46z"></path><path class="C" d="M346.63 14.66c-3.6-2.34-8.27-2.38-13.2-.12-10.9 5.02-20.5 20.23-21.4 33.9-.36 5.47.67 10.1 3 13.4l15.13 28.7a.98.98 0 0 0 1.78-.11l17.27-45.36a47.03 47.03 0 0 0 1.75-4.6c1.2-3.74 1.84-7.4 1.9-10.9.1-6.92-2.1-12.2-6.22-14.9z"></path><path class="D" d="M338.84 47.2l-1.93-5.23-8.3 5.03-1.93 7.58-4.55 2.76 7.94-29.9 5.37-3.26 7.9 20.28-4.5 2.73zm-6.08-17.52l-.1.45-.37 1.7c-.14.63-1.03 4.17-2.65 10.62l6.25-3.8-2.14-5.9-.66-2.02-.34-1.03z"></path><defs><path id="B" d="M102.5 301.64c-8.62 0-15.63-4.14-15.63-9.22 0-.3.03-.58.08-.9h-.02l.15-.63 1.27-4.75h2.7c2.95-1.87 7.12-2.95 11.47-2.95s8.5 1.07 11.47 2.95h2.8l1.16 4.82c.14.54.2 1 .2 1.46-.02 5.08-7.03 9.22-15.65 9.22zm-14.3-11.12l-.15.64c-.13.46-.2.87-.2 1.26 0 4.53 6.56 8.22 14.63 8.22s14.63-3.7 14.63-8.22a4.73 4.73 0 0 0-.18-1.21v-.01l-.97-4.05h-2.3l-.12-.08c-2.8-1.82-6.83-2.86-11.05-2.86s-8.25 1.04-11.05 2.86l-.12.08h-2.22l-.9 3.37z"></path><path id="C" d="M116.5 287.67c0 4.43-6.24 8.03-13.93 8.03-7.7 0-13.93-3.6-13.93-8.03 0-4.43 6.24-8.03 13.93-8.03s13.93 3.6 13.93 8.03z"></path></defs></svg> 